<svg id="Capa_1" enable-background="new 0 0 512 512" height="512" viewBox="0 0 512 512" width="512" xmlns="http://www.w3.org/2000/svg"><g><path d="m166 150c24.813 0 45-20.187 45-45s-20.187-45-45-45-45 20.187-45 45 20.187 45 45 45zm0-60c8.271 0 15 6.729 15 15s-6.729 15-15 15-15-6.729-15-15 6.729-15 15-15z"/><path d="m391 105c0-24.813-20.187-45-45-45s-45 20.187-45 45 20.187 45 45 45 45-20.187 45-45zm-60 0c0-8.271 6.729-15 15-15s15 6.729 15 15-6.729 15-15 15-15-6.729-15-15z"/><path d="m419.404 180c19.483-19.073 31.596-45.646 31.596-75 0-57.897-47.103-105-105-105-38.151 0-71.612 20.455-90 50.971-18.389-30.516-51.849-50.971-90-50.971-57.897 0-105 47.103-105 105 0 29.354 12.113 55.927 31.596 75h-47.729v116.729h16.133v215.271h390v-215.271h16.133v-116.729zm-148.404-75c0-41.355 33.645-75 75-75s75 33.645 75 75-33.645 75-75 75h-75zm-180 0c0-41.355 33.645-75 75-75s75 33.645 75 75v75h-75c-41.355 0-75-33.645-75-75zm109.924 377h-109.924v-185.271h109.924zm0-215.271h-126.057v-56.729h126.057zm80.152 215.271h-50.152v-272h50.152zm139.924 0h-109.924v-185.271h109.924zm16.133-215.271h-126.057v-56.729h126.057z"/></g></svg>