<svg id="Capa_1" enable-background="new 0 0 512 512" height="512" viewBox="0 0 512 512" width="512" xmlns="http://www.w3.org/2000/svg"><g><path d="m160.398 0c-52.799 0-95.602 42.802-95.602 95.602 0 52.799 42.802 95.602 95.602 95.602l95.602 20 20-65.537-20-50.065c0-52.8-42.802-95.602-95.602-95.602zm44.102 95.602c0 24.357-19.745 44.102-44.102 44.102-24.357 0-44.102-19.745-44.102-44.102 0-24.357 19.745-44.102 44.102-44.102 24.357 0 44.102 19.745 44.102 44.102z" fill="#ffe477"/><path d="m351.602 0c-52.8 0-95.602 42.802-95.602 95.602v115.602l95.602-20c52.799 0 95.602-42.802 95.602-95.602-.001-52.8-42.803-95.602-95.602-95.602zm44.101 95.602c0 24.357-19.745 44.102-44.102 44.102-24.357 0-44.102-19.745-44.102-44.102 0-24.357 19.745-44.102 44.102-44.102 24.357 0 44.102 19.745 44.102 44.102z" fill="#ffb655"/><g><path d="m64.797 283.33v228.67h148.633l42.57-20 20-107-20-121.67z" fill="#0fa9dd"/><path d="m447.203 283.33-191.203-20v228.67l42.57 20h148.633z" fill="#0b799d"/></g><g><path d="m47.66 191.203v92.127h208.34l20-46.063-20-26.064-42.57-20z" fill="#5ecef4"/><path d="m464.34 191.203h-165.77l-42.57 20v72.127h208.34z" fill="#0fa9dd"/></g><g><path d="m213.43 191.203v320.797h42.57l20-160.398-20-160.399z" fill="#ffb655"/><path d="m256 191.203h42.57v320.797h-42.57z" fill="#ff7c48"/></g></g></svg>